<?xml version="1.0" standalone="no"?>
<!DOCTYPE svg PUBLIC "-//W3C//DTD SVG 20010904//EN"
 "http://www.w3.org/TR/2001/REC-SVG-20010904/DTD/svg10.dtd">
<svg version="1.0" xmlns="http://www.w3.org/2000/svg"
 width="1976.000000pt" height="439.000000pt" viewBox="0 0 1976.000000 439.000000"
 preserveAspectRatio="xMidYMid meet">

<g transform="translate(0.000000,439.000000) scale(0.100000,-0.100000)"
fill="#000000" stroke="none">
<path d="M16872 4108 c-9 -23 -328 -850 -708 -1838 l-690 -1795 120 -3 c65 -1
123 1 127 5 7 7 1395 3616 1406 3656 5 15 -5 17 -117 17 l-122 0 -16 -42z"/>
<path d="M1140 2591 l-955 -437 0 -114 0 -114 955 -438 955 -437 3 75 c2 41 2
106 0 145 l-3 70 -700 306 c-596 261 -720 312 -835 342 -74 20 -134 40 -133
46 1 5 57 23 125 41 104 27 233 80 828 344 388 171 709 315 713 319 4 4 6 71
5 148 l-3 140 -955 -436z"/>
<path d="M17580 2867 l0 -142 743 -317 c554 -237 771 -324 856 -347 62 -16
116 -33 119 -36 11 -11 -15 -20 -134 -49 -98 -24 -232 -79 -848 -346 l-731
-317 -3 -141 c-1 -78 1 -142 5 -142 5 1 447 198 983 439 l975 438 0 112 0 112
-960 429 c-528 236 -970 434 -982 440 l-23 10 0 -143z"/>
</g>
</svg>
